# xmcd CD database file
#
# Track frame offsets:
#	225
#	13093
#	32366
#	48478
#	62792
#	77627
#	88640
#	105459
#	116598
#	141159
#	156746
#
# Disc length: 2257 seconds
#
# Revision: 1
# Processed by: cddbd v1.5.2PL0 Copyright (c) Steve Scherf et al.
# Submitted via: CDex 1.70beta2
#
DISCID=8d08ce0b
DTITLE=Laura Blackley - Liquid Courage
DYEAR=2004
DGENRE=Southern Rock
TTITLE0=Never Been Wrong
TTITLE1=Helen's Bridge
TTITLE2=Liquid Courage
TTITLE3=Donnie Parker's Ballad
TTITLE4=Deep River Lament
TTITLE5=When The Money
TTITLE6=Hurts Me To ...
TTITLE7=Sweeten Yo Stew
TTITLE8=Lay Your Hands on Me
TTITLE9=Train Whistle Blues
TTITLE10=Your Mama Must Be Proud
EXTD=YEAR: 2004
EXTT0=
EXTT1=
EXTT2=
EXTT3=
EXTT4=
EXTT5=
EXTT6=
EXTT7=
EXTT8=
EXTT9=
EXTT10=
PLAYORDER=
